<?xml version="1.0" encoding="UTF-8" standalone="no" ?>
<!DOCTYPE svg PUBLIC "-//W3C//DTD SVG 1.1//EN" "http://www.w3.org/Graphics/SVG/1.1/DTD/svg11.dtd">
<svg xmlns="http://www.w3.org/2000/svg" xmlns:xlink="http://www.w3.org/1999/xlink" version="1.1" width="1080" height="1080" viewBox="-440.91 -26.36 1080 1080" xml:space="preserve">
<desc>Created with Fabric.js 5.2.4</desc>
<defs>
</defs>
<rect x="0" y="0" width="100%" height="100%" fill="transparent"></rect>
<g transform="matrix(1 0 0 1 540 540)" id="eaf898ae-b25b-48a0-9a9c-fff9e94a76da"  >
</g>
<g transform="matrix(1 0 0 1 540 540)" id="28088774-ff83-43f0-ba3e-6eff18715ebe"  >
<rect style="stroke: none; stroke-width: 1; stroke-dasharray: none; stroke-linecap: butt; stroke-dashoffset: 0; stroke-linejoin: miter; stroke-miterlimit: 4; fill: rgb(255,255,255); fill-rule: nonzero; opacity: 1; visibility: hidden;" vector-effect="non-scaling-stroke"  x="-540" y="-540" rx="0" ry="0" width="1080" height="1080" />
</g>
<g transform="matrix(7.52 0 0 7.52 93.64 508.25)"  >
<path style="stroke: rgb(0,0,0); stroke-width: 0; stroke-dasharray: none; stroke-linecap: butt; stroke-dashoffset: 0; stroke-linejoin: miter; stroke-miterlimit: 4; fill: rgb(83,191,221); fill-rule: nonzero; opacity: 1;" vector-effect="non-scaling-stroke"  transform=" translate(-69.64, -17.24)" d="M 13.7285 1.40625 L 13.7285 27 L 8.47266 27 L 8.47266 1.40625 L 13.7285 1.40625 Z M 21.6035 1.40625 L 21.6035 5.53711 L 0.720703 5.53711 L 0.720703 1.40625 L 21.6035 1.40625 Z M 28.125 12.1289 L 28.125 27 L 23.0625 27 L 23.0625 7.98047 L 27.8262 7.98047 L 28.125 12.1289 Z M 33.8555 7.85742 L 33.7676 12.5508 C 33.5215 12.5156 33.2227 12.4863 32.8711 12.4629 C 32.5312 12.4277 32.2207 12.4102 31.9395 12.4102 C 31.2246 12.4102 30.6035 12.5039 30.0762 12.6914 C 29.5605 12.8672 29.127 13.1309 28.7754 13.4824 C 28.4355 13.834 28.1777 14.2617 28.002 14.7656 C 27.8379 15.2695 27.7441 15.8438 27.7207 16.4883 L 26.7012 16.1719 C 26.7012 14.9414 26.8242 13.8105 27.0703 12.7793 C 27.3164 11.7363 27.6738 10.8281 28.1426 10.0547 C 28.623 9.28125 29.209 8.68359 29.9004 8.26172 C 30.5918 7.83984 31.3828 7.62891 32.2734 7.62891 C 32.5547 7.62891 32.8418 7.65234 33.1348 7.69922 C 33.4277 7.73438 33.668 7.78711 33.8555 7.85742 Z M 45.9141 22.7109 L 45.9141 14.2383 C 45.9141 13.6289 45.8145 13.1074 45.6152 12.6738 C 45.416 12.2285 45.1055 11.8828 44.6836 11.6367 C 44.2734 11.3906 43.7402 11.2676 43.084 11.2676 C 42.5215 11.2676 42.0352 11.3672 41.625 11.5664 C 41.2148 11.7539 40.8984 12.0293 40.6758 12.3926 C 40.4531 12.7441 40.3418 13.1602 40.3418 13.6406 L 35.2793 13.6406 C 35.2793 12.832 35.4668 12.0645 35.8418 11.3379 C 36.2168 10.6113 36.7617 9.97266 37.4766 9.42188 C 38.1914 8.85938 39.041 8.41992 40.0254 8.10352 C 41.0215 7.78711 42.1348 7.62891 43.3652 7.62891 C 44.8418 7.62891 46.1543 7.875 47.3027 8.36719 C 48.4512 8.85938 49.3535 9.59766 50.0098 10.582 C 50.6777 11.5664 51.0117 12.7969 51.0117 14.2734 L 51.0117 22.4121 C 51.0117 23.4551 51.0762 24.3105 51.2051 24.9785 C 51.334 25.6348 51.5215 26.209 51.7676 26.7012 L 51.7676 27 L 46.6523 27 C 46.4062 26.4844 46.2188 25.8398 46.0898 25.0664 C 45.9727 24.2812 45.9141 23.4961 45.9141 22.7109 Z M 46.582 15.416 L 46.6172 18.2812 L 43.7871 18.2812 C 43.1191 18.2812 42.5391 18.3574 42.0469 18.5098 C 41.5547 18.6621 41.1504 18.8789 40.834 19.1602 C 40.5176 19.4297 40.2832 19.7461 40.1309 20.1094 C 39.9902 20.4727 39.9199 20.8711 39.9199 21.3047 C 39.9199 21.7383 40.0195 22.1309 40.2188 22.4824 C 40.418 22.8223 40.7051 23.0918 41.0801 23.291 C 41.4551 23.4785 41.8945 23.5723 42.3984 23.5723 C 43.1602 23.5723 43.8223 23.4199 44.3848 23.1152 C 44.9473 22.8105 45.3809 22.4355 45.6855 21.9902 C 46.002 21.5449 46.166 21.123 46.1777 20.7246 L 47.5137 22.8691 C 47.3262 23.3496 47.0684 23.8477 46.7402 24.3633 C 46.4238 24.8789 46.0195 25.3652 45.5273 25.8223 C 45.0352 26.2676 44.4434 26.6367 43.752 26.9297 C 43.0605 27.2109 42.2402 27.3516 41.291 27.3516 C 40.084 27.3516 38.9883 27.1113 38.0039 26.6309 C 37.0312 26.1387 36.2578 25.4648 35.6836 24.6094 C 35.1211 23.7422 34.8398 22.7578 34.8398 21.6562 C 34.8398 20.6602 35.0273 19.7754 35.4023 19.002 C 35.7773 18.2285 36.3281 17.5781 37.0547 17.0508 C 37.793 16.5117 38.7129 16.1074 39.8145 15.8379 C 40.916 15.5566 42.1934 15.416 43.6465 15.416 L 46.582 15.416 Z M 61.1016 23.3086 L 65.3203 7.98047 L 70.6113 7.98047 L 64.1953 27 L 60.9961 27 L 61.1016 23.3086 Z M 58.2012 7.98047 L 62.4375 23.3262 L 62.5254 27 L 59.3086 27 L 52.8926 7.98047 L 58.2012 7.98047 Z M 78.2227 0 L 78.2227 27 L 73.1426 27 L 73.1426 0 L 78.2227 0 Z M 87.75 7.98047 L 87.75 27 L 82.6699 27 L 82.6699 7.98047 L 87.75 7.98047 Z M 82.3535 3.02344 C 82.3535 2.28516 82.6113 1.67578 83.127 1.19531 C 83.6426 0.714844 84.334 0.474609 85.2012 0.474609 C 86.0566 0.474609 86.7422 0.714844 87.2578 1.19531 C 87.7852 1.67578 88.0488 2.28516 88.0488 3.02344 C 88.0488 3.76172 87.7852 4.37109 87.2578 4.85156 C 86.7422 5.33203 86.0566 5.57227 85.2012 5.57227 C 84.334 5.57227 83.6426 5.33203 83.127 4.85156 C 82.6113 4.37109 82.3535 3.76172 82.3535 3.02344 Z M 96.8906 12.041 L 96.8906 27 L 91.8281 27 L 91.8281 7.98047 L 96.5742 7.98047 L 96.8906 12.041 Z M 96.1523 16.8223 L 94.7812 16.8223 C 94.7812 15.416 94.9629 14.1504 95.3262 13.0254 C 95.6895 11.8887 96.1992 10.9219 96.8555 10.125 C 97.5117 9.31641 98.291 8.70117 99.1934 8.2793 C 100.107 7.8457 101.127 7.62891 102.252 7.62891 C 103.143 7.62891 103.957 7.75781 104.695 8.01562 C 105.434 8.27344 106.066 8.68359 106.594 9.24609 C 107.133 9.80859 107.543 10.5527 107.824 11.4785 C 108.117 12.4043 108.264 13.5352 108.264 14.8711 L 108.264 27 L 103.166 27 L 103.166 14.8535 C 103.166 14.0098 103.049 13.3535 102.814 12.8848 C 102.58 12.416 102.234 12.0879 101.777 11.9004 C 101.332 11.7012 100.781 11.6016 100.125 11.6016 C 99.4453 11.6016 98.8535 11.7363 98.3496 12.0059 C 97.8574 12.2754 97.4473 12.6504 97.1191 13.1309 C 96.8027 13.5996 96.5625 14.1504 96.3984 14.7832 C 96.2344 15.416 96.1523 16.0957 96.1523 16.8223 Z M 124.154 7.98047 L 128.742 7.98047 L 128.742 26.3672 C 128.742 28.1016 128.355 29.5723 127.582 30.7793 C 126.82 31.998 125.754 32.918 124.383 33.5391 C 123.012 34.1719 121.418 34.4883 119.602 34.4883 C 118.805 34.4883 117.961 34.3828 117.07 34.1719 C 116.191 33.9609 115.348 33.6328 114.539 33.1875 C 113.742 32.7422 113.074 32.1797 112.535 31.5 L 114.768 28.5117 C 115.354 29.1914 116.033 29.7188 116.807 30.0938 C 117.58 30.4805 118.436 30.6738 119.373 30.6738 C 120.287 30.6738 121.061 30.5039 121.693 30.1641 C 122.326 29.8359 122.812 29.3496 123.152 28.7051 C 123.492 28.0723 123.662 27.3047 123.662 26.4023 L 123.662 12.375 L 124.154 7.98047 Z M 111.357 17.7188 L 111.357 17.3496 C 111.357 15.8965 111.533 14.5781 111.885 13.3945 C 112.248 12.1992 112.758 11.1738 113.414 10.3184 C 114.082 9.46289 114.891 8.80078 115.84 8.33203 C 116.789 7.86328 117.861 7.62891 119.057 7.62891 C 120.322 7.62891 121.383 7.86328 122.238 8.33203 C 123.094 8.80078 123.797 9.46875 124.348 10.3359 C 124.898 11.1914 125.326 12.2051 125.631 13.377 C 125.947 14.5371 126.193 15.8086 126.369 17.1914 L 126.369 18 C 126.193 19.3242 125.93 20.5547 125.578 21.6914 C 125.227 22.8281 124.764 23.8242 124.189 24.6797 C 123.615 25.5234 122.9 26.1797 122.045 26.6484 C 121.201 27.1172 120.193 27.3516 119.021 27.3516 C 117.85 27.3516 116.789 27.1113 115.84 26.6309 C 114.902 26.1504 114.1 25.4766 113.432 24.6094 C 112.764 23.7422 112.248 22.7227 111.885 21.5508 C 111.533 20.3789 111.357 19.1016 111.357 17.7188 Z M 116.42 17.3496 L 116.42 17.7188 C 116.42 18.5039 116.496 19.2363 116.648 19.916 C 116.801 20.5957 117.035 21.1992 117.352 21.7266 C 117.68 22.2422 118.084 22.6465 118.564 22.9395 C 119.057 23.2207 119.637 23.3613 120.305 23.3613 C 121.23 23.3613 121.986 23.168 122.572 22.7812 C 123.158 22.3828 123.598 21.8379 123.891 21.1465 C 124.184 20.4551 124.354 19.6582 124.4 18.7559 L 124.4 16.4531 C 124.377 15.7148 124.277 15.0527 124.102 14.4668 C 123.926 13.8691 123.68 13.3594 123.363 12.9375 C 123.047 12.5156 122.637 12.1875 122.133 11.9531 C 121.629 11.7188 121.031 11.6016 120.34 11.6016 C 119.672 11.6016 119.092 11.7539 118.6 12.0586 C 118.119 12.3516 117.715 12.7559 117.387 13.2715 C 117.07 13.7871 116.83 14.3965 116.666 15.0996 C 116.502 15.791 116.42 16.541 116.42 17.3496 Z M 138.393 1.40625 L 137.812 19.1777 L 133.594 19.1777 L 132.996 1.40625 L 138.393 1.40625 Z M 132.855 24.6797 C 132.855 23.9297 133.113 23.3086 133.629 22.8164 C 134.156 22.3125 134.848 22.0605 135.703 22.0605 C 136.57 22.0605 137.262 22.3125 137.777 22.8164 C 138.293 23.3086 138.551 23.9297 138.551 24.6797 C 138.551 25.4062 138.293 26.0215 137.777 26.5254 C 137.262 27.0293 136.57 27.2812 135.703 27.2812 C 134.848 27.2812 134.156 27.0293 133.629 26.5254 C 133.113 26.0215 132.855 25.4062 132.855 24.6797 Z" stroke-linecap="round" />
</g>
<g transform="matrix(0.66 0 0 0.69 591.11 563.79)" id="d576a1c7-4d63-4735-a968-663827e0b6e3"  >
<circle style="stroke: rgb(0,0,0); stroke-width: 0; stroke-dasharray: none; stroke-linecap: butt; stroke-dashoffset: 0; stroke-linejoin: miter; stroke-miterlimit: 4; fill: rgb(223,134,45); fill-rule: nonzero; opacity: 1;" vector-effect="non-scaling-stroke"  cx="0" cy="0" r="35" />
</g>
<g transform="matrix(NaN NaN NaN NaN 0 0)"  >
<g style=""   >
</g>
</g>
<g transform="matrix(NaN NaN NaN NaN 0 0)"  >
<g style=""   >
</g>
</g>
<g transform="matrix(NaN NaN NaN NaN 0 0)"  >
<g style=""   >
</g>
</g>
<g transform="matrix(NaN NaN NaN NaN 0 0)"  >
<g style=""   >
</g>
</g>
<g transform="matrix(NaN NaN NaN NaN 0 0)"  >
<g style=""   >
</g>
</g>
<g transform="matrix(NaN NaN NaN NaN 0 0)"  >
<g style=""   >
</g>
</g>
</svg>